<?xml version="1.0" encoding="UTF-8"?>
<svg xmlns="http://www.w3.org/2000/svg" viewBox="0 0 371.57 143.91" fill="#3F5A2E">
  <g>
    <path d="M0,37.78v-1.19c1.38,0,2.28-.06,2.69-.18s.81-.37,1.19-.75c.31-.38.52-.84.62-1.4l.21-1.71.05-1.19V6.78c0-2.17-.25-3.58-.75-4.22-.5-.64-1.84-.96-4.01-.96V.47l3.93.21c.38,0,1.07-.03,2.07-.1,1-.07,1.85-.1,2.54-.1l14.8,31.31L36.17.47l5.07.21,4.19-.21v1.14c-1.86,0-3.05.34-3.57,1.01s-.78,2.08-.78,4.22v24.53c0,2.04.24,3.42.72,4.14s1.69,1.09,3.62,1.09v1.19l-6.83-.21-6.93.21v-1.19c1.9,0,3.1-.32,3.62-.96s.78-2.06.78-4.27V4.81l-13.92,33.69h-1.09L6.26,6.83v24.53c0,2.21.26,3.63.78,4.27s1.79.96,3.83.96v1.19l-5.64-.16-5.23.16Z"/>
    <path d="M45.23,37.78v-1.24c1.38,0,2.44-.14,3.18-.41.74-.28,1.35-.91,1.84-1.92l1.19-2.9L62.72,0h.78l13.2,31.36.57,1.19c.69,1.42,1.31,2.43,1.86,3.05.72.62,1.98.93,3.78.93v1.24l-7.35-.21-7.14.21v-1.24h1.14c.66-.1,1.17-.17,1.55-.21.83-.21,1.24-.74,1.24-1.6,0-.38-.07-.8-.21-1.27-.14-.47-.41-1.18-.83-2.15l-3.42-8.12h-12.01l-2.9,8.12c-.52,1.52-.81,2.62-.88,3.31,0,.93.4,1.5,1.19,1.71l1.35.21h1.4v1.24l-5.43-.21-5.38.21ZM61.43,7.45l-5.07,14.39h10.97l-5.9-14.39Z"/>
    <path d="M82.34,1.6V.47l3.57.21h2.28c.76-.1,1.35-.17,1.76-.21l26.24,30.43V6.83c0-2.1-.26-3.5-.78-4.19-.59-.69-1.93-1.04-4.04-1.04V.47l5.48.21c.48,0,1.41-.03,2.79-.1,1.38-.07,2.26-.1,2.64-.1v1.14c-2,0-3.28.33-3.83.98-.38.48-.64,1.48-.78,3l-.05,1.24v31.67h-1.29L88.55,6.42v24.94l.05,1.19c0,.72.06,1.33.18,1.81.12.48.32.9.6,1.24.55.66,1.81.98,3.78.98v1.19l-5.43-.21-5.38.21v-1.19c1.31,0,2.17-.06,2.59-.18.41-.12.82-.39,1.22-.8.4-.41.61-.86.65-1.35l.21-1.71.05-1.19V6.83c0-2.17-.26-3.59-.78-4.24s-1.83-.98-3.93-.98Z"/>
    <path d="M125.24,1.76V.47l6.83.21c.62,0,1.8-.03,3.54-.1,1.74-.07,2.84-.1,3.29-.1v1.29c-1.24,0-2.07.06-2.48.18-.41.12-.78.39-1.09.8-.48.66-.72,2.07-.72,4.24v16.72c0,4.97,1.16,8.49,3.47,10.56,2.14,1.93,4.81,2.9,8.02,2.9,3.62,0,6.64-1.29,9.06-3.86,2.41-2.57,3.62-5.75,3.62-9.55V6.99c0-2.14-.27-3.54-.8-4.22-.54-.67-1.82-1.01-3.86-1.01V.47l5.43.21c.45,0,1.28-.03,2.48-.1,1.21-.07,2.19-.1,2.95-.1v1.29c-.55,0-1.04,0-1.48.03-.43.02-.85.08-1.27.18s-.78.36-1.09.78-.55.86-.72,1.34l-.16,1.71v.62l-.05.57v16.72c0,4.49-1.33,8.07-3.98,10.74-2.66,2.67-6.21,4.01-10.66,4.01-4.76,0-8.62-1.37-11.57-4.11-2.95-2.74-4.42-6.36-4.42-10.84V6.99l-.05-1.19c0-.69-.07-1.29-.21-1.81-.14-.52-.31-.93-.52-1.24-.45-.66-1.64-.98-3.57-.98Z"/>
    <path d="M167.83,37.78v-1.09c1.24,0,2.05-.07,2.43-.21.9-.21,1.5-.91,1.81-2.12l.05-.57.05-1.09.05-1.24V6.93c0-2.14-.24-3.55-.72-4.24-.24-.41-.55-.66-.93-.75-.38-.09-.74-.15-1.09-.18-.35-.03-.9-.05-1.66-.05V.47h26.08l.1,8.38h-1.14c-.21-1.72-.62-3.16-1.24-4.3-1-1.72-2.79-2.59-5.38-2.59h-9v15.53h5.69c2.31,0,3.88-.3,4.71-.91.83-.6,1.24-1.73,1.24-3.39v-.21h1.35l-.05,5.07.1,5.49h-1.4v-.21c0-1.76-.39-2.93-1.16-3.52-.78-.59-2.36-.88-4.74-.88h-5.74v12.32c0,2.07.41,3.42,1.24,4.04,1.04.83,3.04,1.24,6,1.24,4.04,0,6.92-.71,8.64-2.12,1.24-1.03,2.02-2.97,2.33-5.8h1.14l-.88,9.16h-27.89Z"/>
    <path d="M199.08,37.78v-1.19c1.9,0,3.1-.31,3.62-.93s.78-2.04.78-4.24V6.83c0-2.04-.24-3.42-.72-4.14s-1.71-1.09-3.67-1.09V.47l6.83.21c.66,0,1.88-.03,3.67-.1,1.79-.07,2.9-.1,3.31-.1v1.14c-1.9,0-3.11.31-3.62.93-.52.62-.78,2.05-.78,4.29v23.55c0,2.28.34,3.78,1.03,4.5.97,1.07,3.28,1.6,6.93,1.6,3.07,0,5.36-.53,6.86-1.6,1.5-1.07,2.46-3.05,2.87-5.95h1.04v8.85h-28.15Z"/>
    <path d="M225.79,37.78v-1.24c1.38,0,2.44-.14,3.18-.41.74-.28,1.35-.91,1.84-1.92l1.19-2.9L243.28,0h.78l13.2,31.36.57,1.19c.69,1.42,1.31,2.43,1.86,3.05.72.62,1.98.93,3.78.93v1.24l-7.35-.21-7.14.21v-1.24h1.14c.66-.1,1.17-.17,1.55-.21.83-.21,1.24-.74,1.24-1.6,0-.38-.07-.8-.21-1.27-.14-.47-.41-1.18-.83-2.15l-3.42-8.12h-12.01l-2.9,8.12c-.52,1.52-.81,2.62-.88,3.31,0,.93.4,1.5,1.19,1.71l1.35.21h1.4v1.24l-5.43-.21-5.38.21ZM241.99,7.45l-5.07,14.39h10.97l-5.9-14.39Z"/>
  </g>
  <g>
    <path d="M187.7,95.48v-1.19c1.38,0,2.28-.06,2.69-.18s.81-.37,1.19-.75c.31-.38.52-.84.62-1.4l.21-1.71.05-1.19v-24.58c0-2.17-.25-3.58-.75-4.22-.5-.64-1.84-.96-4.01-.96v-1.14l3.93.21c.38,0,1.07-.03,2.07-.1,1-.07,1.85-.1,2.54-.1l14.8,31.31,12.83-31.31,5.07.21,4.19-.21v1.14c-1.86,0-3.05.34-3.57,1.01s-.78,2.08-.78,4.22v24.53c0,2.04.24,3.42.72,4.14s1.69,1.09,3.62,1.09v1.19l-6.83-.21-6.93.21v-1.19c1.9,0,3.1-.32,3.62-.96s.78-2.06.78-4.27v-26.55l-13.92,33.69h-1.09l-14.8-31.67v24.53c0,2.21.26,3.63.78,4.27s1.79.96,3.83.96v1.19l-5.64-.16-5.23.16Z"/>
    <path d="M232.93,95.48v-1.24c1.38,0,2.44-.14,3.18-.41.74-.28,1.35-.91,1.84-1.92l1.19-2.9,11.28-31.31h.78l13.2,31.36.57,1.19c.69,1.42,1.31,2.43,1.86,3.05.72.62,1.98.93,3.78.93v1.24l-7.35-.21-7.14.21v-1.24h1.14c.66-.1,1.17-.17,1.55-.21.83-.21,1.24-.74,1.24-1.6,0-.38-.07-.8-.21-1.27-.14-.47-.41-1.18-.83-2.15l-3.42-8.12h-12.01l-2.9,8.12c-.52,1.52-.81,2.62-.88,3.31,0,.93.4,1.5,1.19,1.71l1.35.21h1.4v1.24l-5.43-.21-5.38.21ZM249.13,65.16l-5.07,14.39h10.97l-5.9-14.39Z"/>
    <path d="M300.88,59.57v8.33h-1.29c0-2.97-1.02-5.21-3.05-6.73-2.04-1.52-4.97-2.28-8.8-2.28-4.49,0-8.06,1.52-10.71,4.55-2.66,3.04-3.98,7.12-3.98,12.27,0,5.42,1.43,9.93,4.29,13.53,2.86,3.61,6.45,5.41,10.76,5.41,2.07,0,4.07-.45,6-1.35,1.62-.72,2.98-1.59,4.06-2.61,1.09-1.02,2.42-2.67,4.01-4.94l.57,3.78c-.45.38-.91.78-1.4,1.19s-.98.79-1.5,1.14c-3.76,2.83-7.99,4.24-12.68,4.24-5.28,0-9.66-1.4-13.14-4.19-1.93-1.59-3.49-3.71-4.66-6.37-1.17-2.66-1.76-5.45-1.76-8.38,0-5.76,1.92-10.48,5.77-14.15,3.85-3.67,8.84-5.51,14.98-5.51,2.93,0,7.11.69,12.52,2.07Z"/>
    <path d="M305.44,95.43v-1.14c1.86,0,3.05-.32,3.57-.96s.78-2.04.78-4.22v-24.58c0-2.14-.22-3.54-.67-4.22s-1.67-1.01-3.67-1.01v-1.14l6.78.21c.62,0,1.82-.03,3.6-.1,1.78-.07,2.91-.1,3.39-.1v1.14c-1.86,0-3.05.31-3.57.93-.52.62-.78,2.05-.78,4.29v24.58c0,2.17.23,3.58.7,4.22s1.66.96,3.6.96v1.14l-6.88-.16-6.83.16Z"/>
    <path d="M322.57,95.48v-1.09c1.24,0,2.05-.07,2.43-.21.9-.21,1.5-.91,1.81-2.12l.05-.57.05-1.09.05-1.24v-24.53c0-2.14-.24-3.55-.72-4.24-.24-.41-.55-.66-.93-.75-.38-.09-.74-.15-1.09-.18-.35-.03-.9-.05-1.66-.05v-1.24h26.08l.1,8.38h-1.14c-.21-1.72-.62-3.16-1.24-4.3-1-1.72-2.79-2.59-5.38-2.59h-9v15.53h5.69c2.31,0,3.88-.3,4.71-.91.83-.6,1.24-1.73,1.24-3.39v-.21h1.35l-.05,5.07.1,5.49h-1.4v-.21c0-1.76-.39-2.93-1.16-3.52-.78-.59-2.36-.88-4.74-.88h-5.74v12.32c0,2.07.41,3.42,1.24,4.04,1.04.83,3.04,1.24,6,1.24,4.04,0,6.92-.71,8.64-2.12,1.24-1.03,2.02-2.97,2.33-5.8h1.14l-.88,9.16h-27.89Z"/>
    <path d="M352.58,95.59v-6.21h.98c.38,3.52,1.83,5.28,4.35,5.28,2.86,0,4.3-2.07,4.3-6.21v-23.91c0-2.04-.24-3.42-.72-4.14-.48-.72-1.71-1.09-3.67-1.09v-1.14l6.88.21c.66,0,1.85-.03,3.6-.1,1.74-.07,2.84-.1,3.29-.1v1.14c-1.21,0-2.03.06-2.46.18-.43.12-.79.37-1.09.75s-.49.83-.59,1.34l-.16,1.71-.05,1.24v20.86c0,3.42-.9,6.08-2.69,8s-4.29,2.87-7.5,2.87c-.52,0-1.12-.05-1.81-.16-.69-.1-1.57-.28-2.64-.52Z"/>
  </g>
  <path d="M178.09,83.73c0,4.22-3.5,7.48-6.51,7.48-1.33,0-2.17-.72-2.17-1.81,0-3.62,7.36-1.45,7.36-6.27,0-3.74-3.38-6.03-7.48-6.03-8.08,0-14.23,7.12-22.31,16.28l-1.45,1.57c3.62,6.51,6.88,13.39,6.88,20.62,0,16.64-14.83,28.34-31.48,28.34-12.06,0-21.83-7.84-23.04-20.14l1.21-.24c1.09,10.85,9.29,19.05,21.71,19.05,16.4,0,28.1-11.82,28.1-28.46,0-6.27-1.57-12.06-4.34-17.97-7.36,8.44-15.44,17.73-27.62,17.73-9.53,0-15.32-5.19-15.32-12.54,0-13.15,14.83-20.26,30.15-27.38-2.05-3.74-3.38-7.24-3.38-11.1,0-12.18,12.18-21.11,22.92-21.11,6.39,0,10.25,3.5,10.25,8.8,0,9.77-11.58,16.04-27.02,23.16.36,1.21.72,2.29,1.21,3.38,1.08,2.41,2.77,5.43,5.07,9.53l4.1,7.24c.36-.36.72-.84,1.08-1.21,7.72-8.8,14.71-16.64,23.4-16.64,4.34,0,8.68,2.53,8.68,7.72ZM144.08,94.95c-.96-2.05-2.05-3.98-3.26-6.03-3.14-5.55-6.27-10.01-8.56-13.99-18.69,9.05-24.48,15.56-24.48,26.05,0,6.87,3.62,11.34,10.37,11.34,10.85,0,18.93-9.29,25.93-17.37ZM133.71,65.76c0,2.65.12,4.82.6,7,15.68-7.48,24.24-13.39,24.24-22.31,0-4.58-2.53-7.72-7.36-7.72-10.01,0-17.49,10.49-17.49,23.04Z"/>
</svg>
